<?xml version="1.0" encoding="utf-8"?>
<!-- Generator: Adobe Illustrator 28.1.0, SVG Export Plug-In . SVG Version: 6.00 Build 0)  -->
<svg version="1.1" id="Шар_1" xmlns="http://www.w3.org/2000/svg" xmlns:xlink="http://www.w3.org/1999/xlink" x="0px" y="0px"
	 viewBox="0 0 106 106" style="enable-background:new 0 0 106 106;" xml:space="preserve">
<style type="text/css">
	.st0{fill:#516972;}
	.st1{clip-path:url(#SVGID_00000096738252206603483890000003324085418353497240_);}
	.st2{fill:#94A8B2;}
</style>
<rect class="st0" width="106" height="106"/>
<g>
	<defs>
		<rect id="SVGID_1_" x="152.7" y="72.5" width="106" height="106"/>
	</defs>
	<clipPath id="SVGID_00000075860852863934332750000001910479305070874785_">
		<use xlink:href="#SVGID_1_"  style="overflow:visible;"/>
	</clipPath>
	<g style="clip-path:url(#SVGID_00000075860852863934332750000001910479305070874785_);">
	</g>
</g>
<g>
	<g>
		<path class="st2" d="M95.3,85.3c-1.1,1.4,3.3,20.7,3.3,20.7s-30.1,0-45.3,0s-45.8,0-45.8,0s4.8-19.3,3.8-20.7
			c0.6-2.2,1.3-4.4,2.7-6.1c1.9-2.2,4.8-3.1,7.5-3.9c6.6-2,13.3-4.1,19.9-6.1c0.6-1.6,1.2-4.2,1.4-8c-1.5-1.7-2.7-3.5-3.3-5.1
			c-1-2.6-1.2-5-1.3-6.6c-0.3,0.5-0.9,0.7-1.4,0.6c-0.6-0.1-1.1-0.6-1.4-1.1c-0.3-0.5-0.4-1.2-0.5-1.8c-0.3-2.1-0.5-4.3-0.5-6.4
			c0-0.9,0.2-2,1.1-2.3c0.4-0.1,0.9,0,1.2,0.2c-0.2-4.3-0.2-6.9,0-11.2c0.1-2.2,0.3-4.5,1.4-6.4c1-1.8,2.7-3.1,4.6-4
			c1-0.4,2.1-0.8,3.1-1.1c5-1.4,10.4-1.4,15.4,0.2c0.8,0.3,1.7,0.6,2.5,0.9c1.9,0.8,3.6,2.2,4.6,4c1.1,1.9,1.3,4.2,1.4,6.4
			c0.2,4.3,0.2,6.9,0,11.2c0.4-0.2,0.8-0.3,1.2-0.2c0.9,0.3,1.1,1.4,1.1,2.3c0,2.2-0.1,4.3-0.5,6.4c-0.1,0.6-0.2,1.2-0.5,1.8
			c-0.3,0.5-0.8,1-1.4,1.1c-0.5,0.1-1.2-0.1-1.4-0.6c0,1.5-0.2,4-1.3,6.6c-0.6,1.6-1.9,3.4-3.3,5.1c0.2,3.8,0.8,6.3,1.4,8
			c6.6,2,13.3,4.1,19.9,6.1c2.7,0.8,5.6,1.8,7.5,3.9C94,80.9,94.7,83.1,95.3,85.3z"/>
	</g>
</g>
</svg>
